<svg width="130" height="96" viewBox="0 0 130 96" fill="none" xmlns="http://www.w3.org/2000/svg">
<g filter="url(#filter0_d_211_206)">
<g filter="url(#filter1_i_211_206)">
<rect x="19.5518" y="20.6792" width="87.7322" height="51.7299" rx="9.65625" transform="rotate(-3.35 19.5518 20.6792)" fill="#A1F5B7"/>
</g>
<rect x="20.6085" y="21.6191" width="85.7322" height="49.7299" rx="8.65625" transform="rotate(-3.35 20.6085 21.6191)" stroke="#9DF6B4" stroke-width="2"/>
<path d="M39.9826 57.1262C40.0399 58.1056 39.8594 58.9448 39.4412 59.6436C39.0226 60.3352 38.423 60.8761 37.6423 61.2661C36.8684 61.6486 35.9775 61.8693 34.9694 61.9283C33.9614 61.9873 33.0472 61.8723 32.2268 61.5831C31.406 61.2868 30.7438 60.8198 30.2402 60.1822C29.7361 59.5373 29.4555 58.7252 29.3981 57.7458C29.3596 57.088 29.4572 56.4869 29.6907 55.9424C29.9238 55.3907 30.2652 54.9116 30.7149 54.5051C31.1713 54.091 31.7154 53.765 32.3471 53.5272C32.9784 53.2822 33.6729 53.1375 34.4308 53.0931C35.4459 53.0337 36.3644 53.1593 37.186 53.4699C38.0076 53.7805 38.6663 54.2477 39.1619 54.8715C39.6575 55.4953 39.9311 56.2468 39.9826 57.1262ZM36.8607 57.1045C36.8327 56.6255 36.7157 56.2198 36.5097 55.8876C36.3105 55.5477 36.041 55.2945 35.7012 55.1278C35.3615 54.9612 34.9736 54.8907 34.5375 54.9162C34.1014 54.9417 33.7243 55.0571 33.4063 55.2622C33.0884 55.4673 32.8467 55.7505 32.6813 56.1117C32.5227 56.4653 32.4574 56.8816 32.4854 57.3606C32.513 57.8324 32.6262 58.2347 32.825 58.5674C33.031 58.8997 33.3039 59.1492 33.6436 59.3158C33.9901 59.4749 34.385 59.5414 34.8282 59.5155C35.2715 59.4895 35.6487 59.3778 35.96 59.1802C36.2779 58.9751 36.5127 58.6959 36.6642 58.3427C36.8228 57.9891 36.8883 57.5763 36.8607 57.1045ZM39.2289 49.95C39.2754 50.7435 39.1057 51.4601 38.7199 52.0996C38.3336 52.732 37.7752 53.2417 37.0446 53.6288C36.3212 54.0155 35.4805 54.2369 34.5225 54.293C33.5574 54.3495 32.6894 54.2281 31.9187 53.9289C31.1479 53.6296 30.5338 53.1885 30.0765 52.6055C29.6187 52.0154 29.3665 51.3235 29.3201 50.53C29.2649 49.5863 29.4293 48.7804 29.8134 48.1123C30.2043 47.4366 30.7617 46.909 31.4855 46.5294C32.2165 46.1495 33.0574 45.9317 34.0083 45.876C34.9734 45.8195 35.8376 45.9375 36.6008 46.23C37.3711 46.5221 37.9862 46.9811 38.4461 47.6069C38.9127 48.2253 39.1737 49.0063 39.2289 49.95ZM36.1486 50.2702C36.1239 49.8484 36.0275 49.4881 35.8594 49.1895C35.6908 48.8837 35.4621 48.6532 35.1733 48.498C34.8915 48.3423 34.5505 48.2762 34.1502 48.2996C33.7641 48.3222 33.4365 48.4239 33.1673 48.6046C32.9052 48.785 32.7084 49.0368 32.5766 49.3601C32.4516 49.6759 32.4019 50.0519 32.4274 50.488C32.4521 50.9098 32.5454 51.2774 32.7072 51.5907C32.8757 51.8965 33.1047 52.1306 33.3939 52.293C33.6832 52.4554 34.0245 52.5251 34.4177 52.5021C34.8109 52.4791 35.1381 52.3702 35.3993 52.1756C35.6677 51.9806 35.8641 51.7216 35.9887 51.3986C36.12 51.0681 36.1733 50.692 36.1486 50.2702ZM60.0126 52.0584L60.3748 58.2461C60.1489 58.5534 59.7922 58.8935 59.3047 59.2664C58.8168 59.6321 58.1796 59.9599 57.3931 60.2499C56.6066 60.5398 55.645 60.7181 54.5083 60.7846C53.5002 60.8436 52.5719 60.733 51.7234 60.4526C50.8744 60.1652 50.1308 59.7173 49.4926 59.109C48.8615 58.5003 48.358 57.7407 47.9818 56.8301C47.6053 55.9124 47.3819 54.853 47.3116 53.652L47.2545 52.6761C47.1842 51.475 47.2753 50.3972 47.5279 49.4427C47.7876 48.4877 48.1882 47.6716 48.7297 46.9942C49.2711 46.3169 49.9323 45.7868 50.7134 45.4039C51.4944 45.021 52.3746 44.8009 53.3541 44.7436C54.7124 44.6641 55.8407 44.8204 56.7388 45.2126C57.6366 45.5977 58.337 46.1664 58.8402 46.9189C59.3501 47.6638 59.6879 48.5336 59.8538 49.5282L56.7331 49.7109C56.6235 49.1864 56.4464 48.7341 56.2018 48.3539C55.9571 47.9736 55.621 47.6848 55.1933 47.4875C54.7729 47.2897 54.2373 47.2099 53.5868 47.2479C53.0506 47.2793 52.5781 47.4182 52.1692 47.6645C51.7671 47.9033 51.4354 48.2419 51.1742 48.6804C50.9129 49.119 50.7254 49.6536 50.6117 50.2844C50.4979 50.9152 50.4651 51.6416 50.5133 52.4638L50.5716 53.4611C50.6193 54.2761 50.7402 54.9936 50.9344 55.6135C51.128 56.2263 51.3912 56.7382 51.7237 57.1491C52.0629 57.5525 52.4676 57.8481 52.9377 58.0358C53.4078 58.2234 53.9467 58.2995 54.5544 58.2639C55.062 58.2342 55.4813 58.1666 55.8123 58.0612C56.1504 57.9553 56.4196 57.8355 56.6198 57.7019C56.8268 57.5606 56.9841 57.4295 57.0918 57.3084L56.9298 54.5416L53.9915 54.7136L53.8572 52.4187L60.0126 52.0584ZM62.0665 54.4239L62.0533 54.1987C62.0035 53.3479 62.0792 52.558 62.2804 51.8288C62.4812 51.0925 62.7985 50.4462 63.2322 49.89C63.666 49.3338 64.2138 48.8892 64.8759 48.5563C65.5375 48.2163 66.3079 48.0206 67.1873 47.9691C68.0667 47.9176 68.8583 48.0219 69.5622 48.282C70.2657 48.535 70.8652 48.9123 71.3609 49.4142C71.8637 49.9156 72.2578 50.5202 72.5431 51.2281C72.8281 51.9288 72.9954 52.7045 73.0452 53.5553L73.0584 53.7805C73.1078 54.6241 73.0321 55.414 72.8313 56.1503C72.63 56.8795 72.3092 57.526 71.8687 58.0898C71.435 58.646 70.8871 59.0906 70.2251 59.4234C69.5631 59.7563 68.7924 59.9485 67.9131 60C67.0337 60.0514 66.2423 59.9507 65.5388 59.6978C64.8425 59.4444 64.2429 59.067 63.7401 58.5656C63.244 58.0566 62.8535 57.4517 62.5686 56.7511C62.2832 56.0432 62.1159 55.2675 62.0665 54.4239ZM65.1418 54.0179L65.1549 54.2431C65.1834 54.7292 65.2529 55.1807 65.3633 55.5975C65.4738 56.0143 65.6314 56.3781 65.8361 56.6889C66.0476 56.9922 66.3122 57.2242 66.6301 57.3849C66.948 57.5457 67.3286 57.613 67.7718 57.5871C68.2008 57.562 68.5637 57.4511 68.8607 57.2543C69.1576 57.0576 69.3898 56.7965 69.5573 56.4711C69.7244 56.1385 69.8384 55.7588 69.8995 55.332C69.9678 54.9047 69.9877 54.448 69.9592 53.9619L69.946 53.7367C69.9184 53.2648 69.846 52.8243 69.7288 52.4151C69.6183 51.9983 69.4571 51.6347 69.2453 51.3243C69.0401 51.0063 68.7784 50.7634 68.4601 50.5955C68.1418 50.4276 67.7646 50.3564 67.3285 50.3819C66.8924 50.4075 66.5261 50.5222 66.2296 50.726C65.9402 50.9295 65.7086 51.2013 65.5348 51.5415C65.3678 51.8741 65.2537 52.2538 65.1926 52.6806C65.1311 53.1003 65.1141 53.546 65.1418 54.0179ZM81.3988 56.3698L81.0962 51.2009C81.0744 50.8291 80.9951 50.5146 80.858 50.2571C80.7206 49.9926 80.5188 49.7928 80.2526 49.6577C79.9936 49.5222 79.6639 49.4662 79.2636 49.4896C78.9204 49.5097 78.6273 49.5879 78.3842 49.724C78.1407 49.8531 77.9575 50.0324 77.8346 50.262C77.7113 50.4844 77.6583 50.7422 77.6754 51.0353L74.5869 51.2161C74.5581 50.7228 74.645 50.2478 74.8479 49.7911C75.0507 49.3345 75.3603 48.9254 75.7768 48.5639C76.1928 48.1952 76.6954 47.8967 77.2846 47.6686C77.881 47.44 78.5546 47.3037 79.3052 47.2598C80.206 47.207 81.0155 47.3103 81.7337 47.5695C82.4519 47.8288 83.0288 48.247 83.4643 48.8241C83.907 49.4008 84.1546 50.1395 84.2074 51.0403L84.498 56.0054C84.5353 56.6417 84.6051 57.1613 84.7076 57.5642C84.8097 57.96 84.9446 58.3036 85.1123 58.5951L85.123 58.7774L82.0023 58.96C81.8338 58.6543 81.6964 58.2677 81.5901 57.8005C81.4906 57.3257 81.4268 56.8488 81.3988 56.3698ZM81.5458 51.8955L81.6695 53.6423L79.943 53.7433C79.5355 53.7672 79.1843 53.8344 78.8895 53.9449C78.5947 54.0554 78.3558 54.2021 78.1728 54.385C77.9894 54.5607 77.8577 54.7621 77.7777 54.9892C77.7049 55.2158 77.6762 55.4614 77.6917 55.7259C77.7072 55.9904 77.782 56.2264 77.9161 56.4338C78.0498 56.634 78.2345 56.7881 78.4704 56.8963C78.7059 56.9973 78.9773 57.0388 79.2848 57.0208C79.7495 56.9936 80.148 56.877 80.4802 56.671C80.8125 56.4651 81.0636 56.2208 81.2336 55.9383C81.4107 55.6553 81.4958 55.3921 81.4887 55.1486L82.3803 56.4092C82.2831 56.709 82.1436 57.022 81.9618 57.3483C81.7872 57.6742 81.5579 57.9853 81.274 58.2817C80.9896 58.571 80.6417 58.8173 80.2304 59.0207C79.8186 59.217 79.3232 59.3321 78.7441 59.366C78.0077 59.4091 77.3307 59.3016 76.713 59.0437C76.1021 58.7781 75.6062 58.3947 75.2253 57.8933C74.8512 57.3843 74.6444 56.7938 74.6051 56.1218C74.5695 55.5141 74.6523 54.9677 74.8535 54.4824C75.0546 53.9972 75.3674 53.5807 75.7918 53.2331C76.223 52.8779 76.7698 52.5984 77.4322 52.3946C78.0941 52.1837 78.8684 52.0523 79.7549 52.0004L81.5458 51.8955ZM89.3384 42.0024L90.3026 58.4742L87.2034 58.6556L86.2392 42.1838L89.3384 42.0024ZM98.9406 54.7511C98.9276 54.5295 98.8516 54.3331 98.7124 54.1619C98.5733 53.9907 98.3241 53.8403 97.965 53.7107C97.6127 53.5735 97.1074 53.4596 96.4493 53.369C95.8556 53.2746 95.2992 53.1457 94.7803 52.9824C94.2682 52.8115 93.8181 52.5976 93.43 52.3405C93.049 52.083 92.7438 51.7709 92.5143 51.4041C92.2844 51.0302 92.155 50.5966 92.1261 50.1033C92.0977 49.6172 92.1745 49.1535 92.3568 48.7125C92.5461 48.2709 92.8278 47.8743 93.2017 47.5224C93.5824 47.1629 94.0533 46.8735 94.6144 46.6542C95.1821 46.4272 95.8271 46.2926 96.5491 46.2504C97.5572 46.1914 98.4317 46.3016 99.1726 46.581C99.9206 46.8601 100.504 47.2707 100.923 47.8129C101.349 48.3475 101.583 48.9723 101.625 49.6872L98.5364 49.868C98.5188 49.5677 98.4388 49.3034 98.2963 49.075C98.1605 48.839 97.9564 48.6609 97.6839 48.5405C97.4182 48.4126 97.078 48.3608 96.6633 48.385C96.3202 48.4051 96.027 48.4833 95.7839 48.6195C95.5404 48.7485 95.3566 48.9171 95.2325 49.1252C95.1151 49.3258 95.0633 49.544 95.0771 49.7799C95.0876 49.9587 95.1327 50.1174 95.2126 50.2562C95.2992 50.3875 95.4316 50.5052 95.6099 50.6096C95.7882 50.7139 96.0161 50.8082 96.2936 50.8924C96.5779 50.969 96.926 51.0347 97.3382 51.0895C98.1847 51.2121 98.9449 51.3936 99.619 51.6339C100.293 51.8671 100.836 52.2083 101.25 52.6575C101.663 53.0996 101.892 53.6996 101.936 54.4574C101.967 54.9722 101.88 55.4507 101.676 55.893C101.472 56.3354 101.166 56.73 100.755 57.0768C100.345 57.4165 99.8445 57.6932 99.2545 57.9071C98.6711 58.1134 98.0077 58.2384 97.2642 58.2819C96.1846 58.3451 95.2582 58.2056 94.485 57.8635C93.7189 57.521 93.1254 57.0643 92.7046 56.4935C92.2906 55.9152 92.0651 55.3114 92.0283 54.6823L94.9559 54.5109C94.9949 54.9319 95.122 55.2652 95.3372 55.5108C95.5596 55.7561 95.8315 55.9267 96.1527 56.0227C96.4811 56.1182 96.8312 56.1551 97.203 56.1334C97.6033 56.1099 97.9326 56.0368 98.1909 55.9141C98.4487 55.7842 98.6401 55.6224 98.765 55.4286C98.8967 55.2272 98.9553 55.0014 98.9406 54.7511Z" fill="#006D39" fill-opacity="0.8"/>
<path d="M33.9133 28.7655L34.4949 38.7016L33.1983 38.7775L32.6167 28.8414L33.9133 28.7655ZM37.1071 28.5785L37.1702 29.6568L29.4929 30.1062L29.4298 29.0279L37.1071 28.5785ZM38.0067 34.8736L37.9976 34.7167C37.9664 34.1844 38.0148 33.6862 38.1429 33.2222C38.2707 32.7537 38.4703 32.3425 38.7418 31.9888C39.013 31.6306 39.3501 31.3461 39.7532 31.1353C40.156 30.92 40.6145 30.7973 41.1286 30.7672C41.6472 30.7368 42.1191 30.8051 42.5443 30.9719C42.9738 31.134 43.3441 31.3771 43.6552 31.7012C43.9707 32.0206 44.2192 32.4055 44.4007 32.8559C44.5821 33.3018 44.6883 33.7909 44.7195 34.3232L44.7286 34.4802C44.7598 35.0125 44.7113 35.5106 44.5833 35.9746C44.4552 36.4386 44.2533 36.8499 43.9776 37.2084C43.7061 37.5621 43.369 37.8466 42.9662 38.0619C42.5676 38.2724 42.1091 38.3929 41.5904 38.4232C41.0718 38.4536 40.6 38.3876 40.1751 38.2253C39.7499 38.0585 39.3796 37.8154 39.0641 37.496C38.753 37.1718 38.5068 36.7868 38.3255 36.3409C38.1441 35.895 38.0379 35.4059 38.0067 34.8736ZM39.26 34.6428L39.2692 34.7997C39.2908 35.1682 39.3544 35.5138 39.46 35.8363C39.5654 36.1542 39.7118 36.4332 39.8993 36.6733C40.0914 36.9132 40.3236 37.0982 40.596 37.2283C40.8682 37.3539 41.1794 37.4064 41.5297 37.3859C41.8755 37.3657 42.1739 37.2775 42.4249 37.1213C42.6803 36.9602 42.8871 36.7495 43.0453 36.4892C43.2035 36.2289 43.3164 35.9346 43.384 35.6066C43.4558 35.2737 43.4809 34.923 43.4593 34.5545L43.4501 34.3975C43.4288 34.0335 43.3632 33.6927 43.2533 33.375C43.1477 33.0525 42.9989 32.7714 42.8068 32.5315C42.619 32.2869 42.3889 32.0995 42.1165 31.9693C41.8487 31.8389 41.5396 31.784 41.1893 31.8045C40.8435 31.8247 40.543 31.9154 40.2876 32.0764C40.0368 32.2372 39.8302 32.4501 39.6676 32.7153C39.5094 32.9756 39.3967 33.2721 39.3294 33.6047C39.2619 33.9328 39.2387 34.2788 39.26 34.6428ZM47.6861 31.9446L48.2014 40.7479L46.9321 40.8222L46.3337 30.5995L47.4938 30.5316L47.6861 31.9446ZM52.7904 33.8645L52.7988 34.0078C52.8302 34.5446 52.7957 35.0465 52.6952 35.5135C52.5945 35.9759 52.4311 36.3826 52.2051 36.7337C51.9837 37.0844 51.701 37.3635 51.3571 37.5708C51.0131 37.7781 50.6114 37.8952 50.1519 37.9221C49.6833 37.9495 49.2648 37.8964 48.8963 37.7627C48.5279 37.6291 48.2099 37.4217 47.9423 37.1407C47.6748 36.8596 47.4538 36.5165 47.2795 36.1112C47.1097 35.7058 46.9823 35.2453 46.8973 34.7298L46.8526 33.9655C46.8752 33.4164 46.949 32.9213 47.0738 32.4803C47.1986 32.0393 47.375 31.6593 47.6028 31.3401C47.8349 31.016 48.1237 30.764 48.4693 30.584C48.8145 30.3995 49.2192 30.2936 49.6833 30.2665C50.1473 30.2393 50.5644 30.3062 50.9344 30.4671C51.3042 30.6235 51.6217 30.8606 51.8868 31.1783C52.1519 31.496 52.3595 31.8833 52.5095 32.3402C52.6637 32.7922 52.7574 33.3003 52.7904 33.8645ZM51.5295 34.0821L51.5211 33.9388C51.4995 33.5703 51.4406 33.2268 51.3444 32.9083C51.2479 32.5852 51.1105 32.3057 50.9324 32.0696C50.7585 31.8287 50.5423 31.645 50.2838 31.5187C50.0251 31.3877 49.7228 31.3324 49.3771 31.3526C49.0586 31.3712 48.7843 31.4421 48.5541 31.5651C48.3285 31.6879 48.1392 31.8473 47.9863 32.0435C47.8332 32.235 47.7113 32.4522 47.6205 32.6949C47.534 32.9327 47.473 33.1783 47.4376 33.4314L47.5411 35.1989C47.6507 35.512 47.7957 35.8048 47.976 36.0773C48.156 36.3453 48.3875 36.5577 48.6706 36.7146C48.9535 36.8669 49.3019 36.931 49.7159 36.9068C50.0571 36.8868 50.3464 36.7991 50.5838 36.6437C50.8255 36.4834 51.0187 36.2736 51.1632 36.014C51.3124 35.7542 51.4162 35.4605 51.4746 35.133C51.5328 34.8009 51.5511 34.4506 51.5295 34.0821ZM63.9262 34.4589C63.9126 34.2269 63.8643 34.0243 63.7811 33.8511C63.7022 33.6731 63.5698 33.5165 63.3838 33.3813C63.2024 33.2459 62.9532 33.1212 62.6361 33.0074C62.3235 32.8933 61.929 32.7817 61.4524 32.6727C60.9525 32.5559 60.4995 32.4203 60.0933 32.266C59.6868 32.1072 59.3358 31.9201 59.0401 31.7046C58.7445 31.489 58.5128 31.2356 58.3451 30.9441C58.1774 30.6526 58.0822 30.3135 58.0596 29.9268C58.0369 29.5401 58.0956 29.1783 58.2357 28.8414C58.3758 28.5045 58.5866 28.2069 58.8682 27.9484C59.1541 27.6852 59.5 27.4732 59.906 27.3125C60.3121 27.1518 60.7698 27.0565 61.2794 27.0267C62.0255 26.983 62.6663 27.0893 63.2017 27.3455C63.7414 27.597 64.1612 27.9445 64.461 28.388C64.7606 28.827 64.9256 29.3058 64.956 29.8244L63.6457 29.9011C63.6239 29.528 63.525 29.2029 63.349 28.9256C63.1727 28.6437 62.9182 28.4304 62.5856 28.2855C62.2528 28.1361 61.8384 28.0759 61.3425 28.1049C60.8739 28.1323 60.4913 28.2255 60.1948 28.3843C59.8982 28.5432 59.6819 28.7476 59.5459 28.9975C59.4144 29.2472 59.3577 29.5267 59.3758 29.836C59.3881 30.0453 59.4425 30.2339 59.5391 30.4017C59.6399 30.5647 59.7878 30.7135 59.9829 30.8482C60.1825 30.9826 60.4315 31.1027 60.7298 31.2085C61.0327 31.314 61.3923 31.4117 61.8084 31.5014C62.3818 31.6276 62.879 31.7766 63.2999 31.9482C63.7208 32.1199 64.0704 32.3208 64.3487 32.5511C64.6312 32.7765 64.8452 33.0401 64.9907 33.3421C65.1405 33.6392 65.2267 33.9811 65.2493 34.3678C65.273 34.7727 65.2126 35.1437 65.068 35.4808C64.9234 35.818 64.7054 36.1115 64.4142 36.3614C64.123 36.6112 63.7672 36.8124 63.347 36.9648C62.9311 37.1124 62.4616 37.2015 61.9384 37.2321C61.4789 37.259 61.0225 37.2218 60.5692 37.1206C60.1204 37.019 59.7066 36.8515 59.3277 36.618C58.9534 36.3843 58.6461 36.0873 58.4059 35.727C58.17 35.3619 58.0375 34.9314 58.0085 34.4355L59.3187 34.3588C59.3387 34.7 59.4219 34.9896 59.5682 35.2276C59.7142 35.461 59.9056 35.6506 60.1424 35.7966C60.3838 35.9422 60.6523 36.0452 60.948 36.1055C61.248 36.161 61.5572 36.1794 61.8757 36.1607C62.3352 36.1338 62.7204 36.0474 63.0314 35.9013C63.3424 35.7553 63.5729 35.5592 63.7229 35.3131C63.8773 35.0666 63.9451 34.7819 63.9262 34.4589ZM70.0366 35.7173C70.3368 35.6997 70.6107 35.622 70.8583 35.4843C71.1059 35.3465 71.3053 35.166 71.4566 34.9425C71.6076 34.7146 71.6863 34.4612 71.6929 34.1823L72.8939 34.112C72.8967 34.5501 72.7727 34.9659 72.5218 35.3595C72.2753 35.7483 71.9404 36.0715 71.5172 36.3291C71.0938 36.5821 70.6205 36.7239 70.0973 36.7546C69.5422 36.7871 69.052 36.7176 68.6265 36.5462C68.2056 36.3745 67.8487 36.1261 67.5558 35.8009C67.2674 35.4754 67.042 35.096 66.8797 34.6626C66.7217 34.2245 66.6281 33.7575 66.5991 33.2616L66.5823 32.975C66.5533 32.4791 66.5918 32.0066 66.6979 31.5576C66.8083 31.1038 66.9877 30.6984 67.2362 30.3415C67.4892 29.9843 67.8147 29.6959 68.2127 29.4763C68.6152 29.2564 69.094 29.1302 69.6491 29.0977C70.2269 29.0639 70.7388 29.1527 71.1848 29.3639C71.6306 29.5707 71.9882 29.8693 72.2576 30.2598C72.5312 30.6455 72.6943 31.0925 72.7469 31.6007L71.5459 31.671C71.5053 31.3675 71.4027 31.0973 71.2382 30.8604C71.0782 30.6233 70.8666 30.4394 70.6033 30.3087C70.3443 30.1732 70.0465 30.1153 69.7098 30.135C69.3231 30.1577 69.0023 30.2541 68.7475 30.4242C68.497 30.5895 68.302 30.8063 68.1625 31.0747C68.0272 31.3383 67.9347 31.629 67.8848 31.9469C67.8392 32.26 67.8259 32.5781 67.8448 32.9011L67.8616 33.1877C67.8805 33.5107 67.931 33.8273 68.013 34.1375C68.0951 34.4477 68.2187 34.7258 68.3837 34.9718C68.5533 35.2175 68.7723 35.4101 69.0407 35.5496C69.3133 35.6843 69.6453 35.7402 70.0366 35.7173ZM74.1539 32.7578L74.1447 32.6008C74.1135 32.0685 74.162 31.5704 74.29 31.1064C74.4178 30.6378 74.6174 30.2267 74.8889 29.873C75.1601 29.5147 75.4972 29.2302 75.9003 29.0194C76.3031 28.8041 76.7616 28.6814 77.2757 28.6513C77.7943 28.621 78.2662 28.6892 78.6914 28.8561C79.1209 29.0181 79.4912 29.2612 79.8023 29.5854C80.1178 29.9047 80.3663 30.2896 80.5478 30.74C80.7292 31.1859 80.8354 31.675 80.8666 32.2073L80.8757 32.3643C80.9069 32.8966 80.8585 33.3947 80.7304 33.8587C80.6024 34.3227 80.4005 34.734 80.1247 35.0925C79.8532 35.4462 79.5161 35.7307 79.1133 35.9461C78.7147 36.1566 78.2562 36.277 77.7375 36.3073C77.2189 36.3377 76.7471 36.2717 76.3222 36.1094C75.897 35.9426 75.5267 35.6995 75.2112 35.3801C74.9001 35.056 74.6539 34.6709 74.4726 34.225C74.2912 33.7791 74.185 33.29 74.1539 32.7578ZM75.4072 32.5269L75.4163 32.6839C75.4379 33.0524 75.5015 33.3979 75.6071 33.7204C75.7125 34.0383 75.8589 34.3174 76.0464 34.5575C76.2385 34.7973 76.4707 34.9823 76.7431 35.1124C77.0153 35.238 77.3265 35.2906 77.6768 35.2701C78.0226 35.2498 78.321 35.1616 78.572 35.0054C78.8274 34.8443 79.0342 34.6337 79.1924 34.3733C79.3506 34.113 79.4635 33.8188 79.5311 33.4907C79.6029 33.1578 79.628 32.8071 79.6064 32.4386L79.5972 32.2816C79.5759 31.9177 79.5103 31.5768 79.4004 31.2592C79.2948 30.9367 79.146 30.6555 78.9539 30.4156C78.7661 30.171 78.536 29.9836 78.2636 29.8535C77.9958 29.7231 77.6867 29.6681 77.3364 29.6886C76.9906 29.7088 76.6901 29.7995 76.4347 29.9605C76.1839 30.1213 75.9773 30.3342 75.8147 30.5994C75.6565 30.8597 75.5438 31.1562 75.4765 31.4888C75.409 31.8169 75.3858 32.1629 75.4072 32.5269ZM83.818 29.5694L84.1823 35.7931L82.9199 35.867L82.4876 28.4832L83.716 28.4113L83.818 29.5694ZM86.0543 28.2333L86.1162 29.4075C86.0102 29.3909 85.9094 29.3831 85.8136 29.3841C85.722 29.3804 85.6171 29.3819 85.4988 29.3889C85.2077 29.4059 84.9533 29.4664 84.7357 29.5705C84.5181 29.6745 84.3367 29.813 84.1916 29.9858C84.0465 30.1586 83.9352 30.3615 83.8575 30.5943C83.7841 30.8222 83.7416 31.0712 83.73 31.3413L83.3871 31.5668C83.361 31.1209 83.3798 30.6998 83.4433 30.3035C83.5114 29.9069 83.6299 29.553 83.7989 29.2419C83.9676 28.9261 84.1903 28.6757 84.467 28.4906C84.7481 28.3007 85.0888 28.194 85.4892 28.1705C85.5801 28.1652 85.6854 28.1705 85.8051 28.1863C85.9244 28.1976 86.0075 28.2132 86.0543 28.2333ZM90.8547 35.5395C90.3406 35.5696 89.8692 35.5105 89.4406 35.3621C89.0162 35.2089 88.6445 34.9818 88.3256 34.681C88.0112 34.3798 87.7617 34.0155 87.5769 33.5881C87.3921 33.1606 87.2845 32.6876 87.2541 32.169L87.2374 31.8823C87.2022 31.2818 87.2596 30.7421 87.4096 30.2631C87.5594 29.7795 87.7771 29.3651 88.0627 29.0197C88.3483 28.6742 88.6796 28.4061 89.0564 28.2151C89.4333 28.0241 89.8287 27.9165 90.2427 27.8923C90.7705 27.8614 91.2308 27.9258 91.6236 28.0854C92.0209 28.2447 92.352 28.481 92.6169 28.7942C92.8815 29.1028 93.0858 29.4743 93.2299 29.9087C93.3738 30.3385 93.4609 30.8127 93.4912 31.3314L93.5244 31.8978L88.0104 32.2206L87.9501 31.1901L92.2016 30.9412L92.196 30.8457C92.1586 30.5192 92.0717 30.2047 91.9353 29.9023C91.8035 29.5996 91.6066 29.3555 91.3447 29.1699C91.0827 28.9844 90.7357 28.9043 90.3035 28.9296C90.0168 28.9464 89.7566 29.0232 89.5226 29.1602C89.2884 29.2926 89.0918 29.4821 88.9328 29.7288C88.7737 29.9755 88.6564 30.2723 88.5809 30.6191C88.5053 30.9659 88.4806 31.3622 88.5067 31.808L88.5234 32.0947C88.544 32.445 88.611 32.772 88.7247 33.0758C88.8426 33.3748 89.0016 33.6348 89.2017 33.8559C89.4064 34.0767 89.6468 34.2453 89.923 34.3615C90.2036 34.4774 90.5169 34.5253 90.8626 34.5051C91.3085 34.479 91.6808 34.3659 91.9795 34.1658C92.2782 33.9657 92.5346 33.7065 92.7488 33.3881L93.5487 33.9507C93.4036 34.2011 93.2146 34.4427 92.9817 34.6755C92.7488 34.9082 92.4566 35.1034 92.1052 35.2609C91.7583 35.4181 91.3415 35.511 90.8547 35.5395ZM96.3415 28.8363L96.7058 35.0601L95.4433 35.134L95.0111 27.7501L96.2395 27.6782L96.3415 28.8363ZM98.5778 27.5003L98.6397 28.6744C98.5337 28.6578 98.4328 28.65 98.337 28.6511C98.2455 28.6473 98.1406 28.6489 98.0223 28.6558C97.7312 28.6728 97.4768 28.7334 97.2592 28.8374C97.0416 28.9415 96.8602 29.0799 96.7151 29.2527C96.57 29.4256 96.4586 29.6284 96.381 29.8612C96.3076 30.0892 96.2651 30.3382 96.2535 30.6082L95.9106 30.8337C95.8845 30.3878 95.9033 29.9668 95.9668 29.5704C96.0349 29.1739 96.1534 28.82 96.3224 28.5088C96.491 28.193 96.7138 27.9426 96.9905 27.7575C97.2716 27.5676 97.6123 27.4609 98.0126 27.4375C98.1036 27.4322 98.2089 27.4374 98.3285 27.4532C98.4479 27.4645 98.531 27.4802 98.5778 27.5003Z" fill="#006D39" fill-opacity="0.8"/>
</g>
<defs>
<filter id="filter0_d_211_206" x="-0.000391006" y="-2.47955e-05" width="129.71" height="95.8733" filterUnits="userSpaceOnUse" color-interpolation-filters="sRGB">
<feFlood flood-opacity="0" result="BackgroundImageFix"/>
<feColorMatrix in="SourceAlpha" type="matrix" values="0 0 0 0 0 0 0 0 0 0 0 0 0 0 0 0 0 0 127 0" result="hardAlpha"/>
<feOffset dy="4"/>
<feGaussianBlur stdDeviation="10.05"/>
<feComposite in2="hardAlpha" operator="out"/>
<feColorMatrix type="matrix" values="0 0 0 0 0.121569 0 0 0 0 0.521569 0 0 0 0 0.313726 0 0 0 0.25 0"/>
<feBlend mode="normal" in2="BackgroundImageFix" result="effect1_dropShadow_211_206"/>
<feBlend mode="normal" in="SourceGraphic" in2="effect1_dropShadow_211_206" result="shape"/>
</filter>
<filter id="filter1_i_211_206" x="20.0996" y="16.1" width="89.5098" height="55.6733" filterUnits="userSpaceOnUse" color-interpolation-filters="sRGB">
<feFlood flood-opacity="0" result="BackgroundImageFix"/>
<feBlend mode="normal" in="SourceGraphic" in2="BackgroundImageFix" result="shape"/>
<feColorMatrix in="SourceAlpha" type="matrix" values="0 0 0 0 0 0 0 0 0 0 0 0 0 0 0 0 0 0 127 0" result="hardAlpha"/>
<feOffset/>
<feGaussianBlur stdDeviation="2"/>
<feComposite in2="hardAlpha" operator="arithmetic" k2="-1" k3="1"/>
<feColorMatrix type="matrix" values="0 0 0 0 0 0 0 0 0 0 0 0 0 0 0 0 0 0 0.25 0"/>
<feBlend mode="normal" in2="shape" result="effect1_innerShadow_211_206"/>
</filter>
</defs>
</svg>
